<svg width="82" height="16" viewBox="0 0 82 16" fill="none" xmlns="http://www.w3.org/2000/svg">
<path fill-rule="evenodd" clip-rule="evenodd" d="M17.7521 14.7122C17.2945 14.9757 16.7648 15.1075 16.163 15.1075C15.4797 15.1075 14.8403 14.9788 14.2448 14.7216C13.6492 14.4643 13.1242 14.1082 12.6698 13.6533C12.2153 13.1984 11.8595 12.6729 11.6025 12.0768C11.3455 11.4808 11.217 10.8408 11.217 10.1568C11.217 9.4729 11.3455 8.8329 11.6025 8.23682C11.8595 7.64073 12.2153 7.11524 12.6698 6.66033C13.1242 6.20543 13.6492 5.84935 14.2448 5.59209C14.8403 5.33483 15.4797 5.2062 16.163 5.2062C16.7648 5.2062 17.2945 5.3364 17.7521 5.5968C18.2097 5.85719 18.5889 6.20072 18.8898 6.62739V0.744995H21.1842V14.8627H18.8898V13.6863C18.5889 14.1067 18.2097 14.4486 17.7521 14.7122ZM14.8795 12.5286C15.2775 12.7733 15.7148 12.8957 16.1912 12.8957C16.6801 12.8957 17.1127 12.7733 17.4888 12.5286C17.8649 12.2839 18.1595 11.9529 18.3727 11.5357C18.5858 11.1184 18.6924 10.6588 18.6924 10.1568C18.6924 9.64859 18.5858 9.18584 18.3727 8.76859C18.1595 8.35133 17.8633 8.02034 17.4841 7.77564C17.1048 7.53093 16.6739 7.40857 16.1912 7.40857C15.7085 7.40857 15.2697 7.5325 14.8748 7.78034C14.4798 8.02819 14.1633 8.35917 13.9251 8.77329C13.6868 9.18741 13.5677 9.64859 13.5677 10.1568C13.5677 10.6651 13.6868 11.1262 13.9251 11.5404C14.1633 11.9545 14.4814 12.2839 14.8795 12.5286ZM27.9449 15.1075C28.5154 15.1075 29.0121 14.9773 29.4353 14.7169C29.8584 14.4565 30.2016 14.1161 30.4649 13.6957L30.5589 14.8627H32.8627V5.45091H30.5683L30.6718 6.65563C30.327 6.22896 29.9086 5.87758 29.4165 5.6015C28.9244 5.32542 28.3649 5.18738 27.738 5.18738C27.0673 5.18738 26.4404 5.31287 25.8574 5.56385C25.2745 5.81484 24.7604 6.16307 24.3154 6.60857C23.8703 7.05406 23.5255 7.57171 23.281 8.16152C23.0365 8.75133 22.9143 9.38192 22.9143 10.0533C22.9143 10.7498 23.0428 11.4023 23.2998 12.011C23.5568 12.6196 23.9173 13.1561 24.3812 13.6204C24.8451 14.0847 25.381 14.4486 25.9891 14.7122C26.5971 14.9757 27.2491 15.1075 27.9449 15.1075ZM26.7084 12.538C27.1127 12.7765 27.5468 12.8957 28.0107 12.8957C28.5122 12.8957 28.9479 12.767 29.3177 12.5098C29.6876 12.2525 29.9681 11.909 30.1593 11.4792C30.3505 11.0494 30.4273 10.5741 30.3897 10.0533C30.3458 9.56388 30.2016 9.11996 29.9571 8.72153C29.7127 8.32309 29.3992 8.00466 29.0168 7.76622C28.6345 7.52779 28.2051 7.40857 27.7286 7.40857C27.2334 7.40857 26.7899 7.5372 26.3981 7.79446C26.0063 8.05172 25.7039 8.39525 25.4907 8.82506C25.2776 9.25486 25.193 9.7333 25.2368 10.2604C25.287 10.7435 25.4437 11.1843 25.707 11.5827C25.9703 11.9812 26.3041 12.2996 26.7084 12.538ZM38.3352 14.8627V7.7474H40.1594V5.45091H38.3352V2.4956H36.0409V5.45091H34.6492V7.7474H36.0409V14.8627H38.3352ZM47.9216 14.7169C47.4984 14.9773 47.0016 15.1075 46.4312 15.1075C45.7354 15.1075 45.0834 14.9757 44.4754 14.7122C43.8673 14.4486 43.3313 14.0847 42.8675 13.6204C42.4036 13.1561 42.0431 12.6196 41.7861 12.011C41.5291 11.4023 41.4006 10.7498 41.4006 10.0533C41.4006 9.38192 41.5228 8.75133 41.7673 8.16152C42.0118 7.57171 42.3566 7.05406 42.8016 6.60857C43.2467 6.16307 43.7607 5.81484 44.3437 5.56385C44.9267 5.31287 45.5536 5.18738 46.2243 5.18738C46.8512 5.18738 47.4107 5.32542 47.9028 5.6015C48.3948 5.87758 48.8133 6.22896 49.1581 6.65563L49.0546 5.45091H51.3489V14.8627H49.0452L48.9512 13.6957C48.6879 14.1161 48.3447 14.4565 47.9216 14.7169ZM46.497 12.8957C46.0331 12.8957 45.599 12.7765 45.1947 12.538C44.7904 12.2996 44.4566 11.9812 44.1933 11.5827C43.93 11.1843 43.7733 10.7435 43.7231 10.2604C43.6792 9.7333 43.7639 9.25486 43.977 8.82506C44.1901 8.39525 44.4926 8.05172 44.8844 7.79446C45.2762 7.5372 45.7197 7.40857 46.2149 7.40857C46.6913 7.40857 47.1207 7.52779 47.5031 7.76622C47.8855 8.00466 48.1989 8.32309 48.4434 8.72153C48.6879 9.11996 48.8321 9.56388 48.876 10.0533C48.9136 10.5741 48.8368 11.0494 48.6456 11.4792C48.4544 11.909 48.1739 12.2525 47.804 12.5098C47.4342 12.767 46.9985 12.8957 46.497 12.8957ZM60.5404 14.7216C59.9417 14.9788 59.2976 15.1075 58.6081 15.1075C58.0188 15.1075 57.4969 14.9741 57.0425 14.7075C56.588 14.4408 56.2072 14.0941 55.9 13.6674V14.8627H53.6057V0.744995H55.9V6.62739C56.2072 6.20072 56.588 5.85405 57.0425 5.58738C57.4969 5.32072 58.0188 5.18738 58.6081 5.18738C59.5233 5.18738 60.357 5.41013 61.1092 5.85562C61.8615 6.30112 62.4601 6.89877 62.9052 7.64858C63.3503 8.39839 63.5728 9.2282 63.5728 10.138C63.5728 10.8219 63.4443 11.4651 63.1873 12.0674C62.9303 12.6698 62.5745 13.1984 62.1201 13.6533C61.6656 14.1082 61.139 14.4643 60.5404 14.7216ZM58.5798 12.8863C58.1034 12.8863 57.6772 12.7639 57.301 12.5192C56.9249 12.2745 56.6303 11.9435 56.4172 11.5263C56.204 11.109 56.0975 10.6462 56.0975 10.138C56.0975 9.64232 56.204 9.18584 56.4172 8.76859C56.6303 8.35133 56.9249 8.01878 57.301 7.77093C57.6772 7.52309 58.1034 7.39916 58.5798 7.39916C59.0625 7.39916 59.5045 7.52152 59.9057 7.76622C60.3069 8.01093 60.6266 8.34192 60.8648 8.75917C61.103 9.17643 61.2221 9.63604 61.2221 10.138C61.2221 10.6462 61.103 11.1074 60.8648 11.5215C60.6266 11.9357 60.3084 12.2667 59.9104 12.5145C59.5123 12.7623 59.0688 12.8863 58.5798 12.8863ZM67.2635 3.71443C67.0347 3.93718 66.7542 4.04855 66.4219 4.04855C66.0897 4.04855 65.8076 3.93718 65.5757 3.71443C65.3437 3.49168 65.2278 3.2109 65.2278 2.87207C65.2278 2.53952 65.3437 2.2603 65.5757 2.03442C65.8076 1.80853 66.0897 1.69559 66.4219 1.69559C66.7542 1.69559 67.0347 1.80853 67.2635 2.03442C67.4923 2.2603 67.6067 2.53952 67.6067 2.87207C67.6067 3.2109 67.4923 3.49168 67.2635 3.71443ZM80.0663 7.63916C80.3985 7.63916 80.679 7.52779 80.9078 7.30504C81.1366 7.0823 81.2511 6.80151 81.2511 6.46269C81.2511 6.13013 81.1366 5.85092 80.9078 5.62503C80.679 5.39915 80.3985 5.28621 80.0663 5.28621C79.734 5.28621 79.4519 5.39915 79.22 5.62503C78.9881 5.85092 78.8721 6.13013 78.8721 6.46269C78.8721 6.80151 78.9881 7.0823 79.22 7.30504C79.4519 7.52779 79.734 7.63916 80.0663 7.63916ZM8.07703 13.2962C7.16922 14.1799 6.05622 14.6218 4.73803 14.6218C3.41984 14.6218 2.30062 14.1799 1.38037 13.2962C0.460123 12.4124 0 11.2983 0 9.95401C0 8.63457 0.460123 7.52675 1.38037 6.63053C2.30062 5.73431 3.41984 5.28621 4.73803 5.28621C6.05622 5.28621 7.16922 5.73431 8.07703 6.63053C8.98484 7.52675 9.43874 8.63457 9.43874 9.95401C9.43874 11.2983 8.98484 12.4124 8.07703 13.2962ZM67.5597 5.45091H65.2654V14.8627H67.5597V5.45091ZM77.8998 12.5663V14.8627H69.8697V12.5663L74.5994 7.7474H69.8697V5.45091H77.8998V7.7474L73.1796 12.5663H77.8998Z" fill="#ADADAD"/>
</svg>
