<svg width="53" height="26" viewBox="0 0 53 26" fill="none" xmlns="http://www.w3.org/2000/svg">
<path fill-rule="evenodd" clip-rule="evenodd" d="M36.9274 2.6056V0H33.894V2.6056H36.9274ZM26.6702 12.9364C27.7119 12.9364 28.6401 12.5833 29.3678 11.9729L29.6584 12.6348H31.938V0.502297L28.8925 0.502297V4.0478C28.2515 3.65097 27.496 3.42896 26.6702 3.42896C23.9258 3.42896 21.971 5.4078 21.971 8.17797C21.971 9.34937 22.3205 10.3809 22.9315 11.1815V22.7811H26.0121V18.0212C26.0121 16.8773 26.5933 16.218 27.5254 16.218C28.3293 16.218 28.6917 16.7421 28.6917 17.7702V22.7811H31.7723V17.4135C31.7723 15.103 30.4528 13.6038 28.3995 13.6038C27.5082 13.6038 26.6706 13.9254 26.0121 14.4539V12.897C26.2257 12.923 26.4453 12.9364 26.6702 12.9364ZM27.0823 10.2179C25.9284 10.2179 25.0803 9.34204 25.0803 8.17815C25.0803 7.01409 25.9284 6.13823 27.0823 6.13823C28.2362 6.13823 29.0844 7.01409 29.0844 8.17815C29.0844 9.34204 28.2362 10.2179 27.0823 10.2179ZM7.38829 11.995C6.6559 12.5863 5.72841 12.927 4.68962 12.927C1.95485 12.927 0 10.9386 0 8.16841C0 5.40781 1.95485 3.443 4.68962 3.443C5.74298 3.443 6.68389 3.79361 7.4224 4.40089L7.73759 3.71157L10.0336 3.71173V12.6254H7.65212L7.38829 11.995ZM3.09942 8.1755C3.09942 9.33956 3.94758 10.2085 5.10148 10.2085C6.25537 10.2085 7.10353 9.33956 7.10353 8.1755C7.10353 7.01853 6.25537 6.14961 5.10148 6.14961C3.94062 6.14961 3.09942 7.01853 3.09942 8.1755ZM16.2702 12.927C18.912 12.927 20.6716 11.3024 20.6716 8.80819V3.72112H17.591V8.67465C17.591 9.60613 17.0932 10.1689 16.2702 10.1689C15.447 10.1689 14.9396 9.61554 14.9396 8.67465V3.72112H11.859V8.80819C11.859 11.3024 13.6281 12.927 16.2702 12.927ZM36.9511 3.72099V12.6347H36.6714V12.7519H33.638V10.1463H33.8705V3.72099H36.9511ZM50.4499 5.99387C50.785 5.99387 51.0679 5.88156 51.2986 5.65693C51.5294 5.43229 51.6447 5.14913 51.6447 4.80744C51.6447 4.47207 51.5294 4.19049 51.2986 3.9627C51.0679 3.7349 50.785 3.621 50.4499 3.621C50.1149 3.621 49.8304 3.7349 49.5965 3.9627C49.3626 4.19049 49.2456 4.47207 49.2456 4.80744C49.2456 5.14913 49.3626 5.43229 49.5965 5.65693C49.8304 5.88156 50.1149 5.99387 50.4499 5.99387ZM43.3823 12.927C46.2888 12.927 48.3967 10.9316 48.3967 8.17796C48.3967 5.41488 46.2888 3.42911 43.3823 3.42911C40.4663 3.42911 38.3679 5.41488 38.3679 8.17796C38.3679 9.10264 38.6045 9.94181 39.0293 10.6486H38.6326V22.7811H41.7132V12.6891C42.2285 12.8442 42.7884 12.927 43.3823 12.927ZM43.3824 10.169C42.2591 10.1688 41.4535 9.35653 41.4535 8.17811C41.4535 6.99968 42.2591 6.18738 43.3824 6.18738C44.5056 6.18738 45.3112 7.00678 45.3112 8.17827C45.3112 9.35669 44.5056 10.169 43.3824 10.169ZM14.6484 22.4908V26H11.6029V13.8675H13.6979L14.0838 14.5756C14.8193 13.9418 15.7659 13.5753 16.8287 13.5753C19.5635 13.5753 21.5183 15.5472 21.5183 18.3243C21.5183 21.1014 19.5635 23.0827 16.8287 23.0827C16.02 23.0827 15.2796 22.8708 14.6484 22.4908ZM14.4144 18.3241C14.4144 19.4951 15.2626 20.364 16.4165 20.364C17.5633 20.364 18.4186 19.4951 18.4186 18.3241C18.4186 17.1531 17.5704 16.2842 16.4165 16.2842C15.2626 16.2842 14.4144 17.1531 14.4144 18.3241ZM36.6951 13.8673V22.781H33.6145V13.8673H36.6951ZM47.9878 23.0735C50.2316 23.0735 52.0409 21.8024 52.6703 19.7681H49.6048C49.3086 20.2899 48.7074 20.6041 47.9878 20.6041C47.0151 20.6041 46.3635 20.0753 46.162 19.0529H52.8029C52.843 18.7772 52.8665 18.5087 52.8665 18.2401C52.8667 15.6253 50.8706 13.5754 47.9878 13.5754C45.1806 13.5754 43.1299 15.5848 43.1299 18.3175C43.1299 21.0407 45.1972 23.0735 47.9878 23.0735ZM49.8318 17.3527H46.2162C46.4655 16.4673 47.0897 15.9812 47.9876 15.9812C48.9172 15.9812 49.5615 16.4619 49.8318 17.3527Z" fill="#ADADAD"/>
</svg>
