<svg width="59" height="18" viewBox="0 0 59 18" fill="none" xmlns="http://www.w3.org/2000/svg">
<path fill-rule="evenodd" clip-rule="evenodd" d="M15.8614 8.18755C15.8614 8.40407 15.8527 8.61854 15.8356 8.83065C14.9681 6.99751 13.1032 5.72927 10.9421 5.72542C8.74904 5.72346 6.77123 7.04404 5.93246 9.07033C5.09369 11.0966 5.55949 13.4287 7.11229 14.9773C7.56028 15.4241 8.07324 15.7802 8.625 16.0406C8.41312 16.0577 8.19888 16.0664 7.98259 16.0664C7.55642 16.0664 7.13815 16.0325 6.73032 15.9674C5.38742 14.7957 4.53805 13.0724 4.53561 11.1502C4.53113 7.61602 7.39158 4.74685 10.9258 4.74057C12.8549 4.73714 14.5864 5.58744 15.7625 6.93526C15.8276 7.34309 15.8614 7.76137 15.8614 8.18755ZM15.7625 6.93526C15.1626 3.17905 11.9078 0.308716 7.98259 0.308716C3.63123 0.308716 0.10376 3.83619 0.10376 8.18755C0.10376 12.1127 2.97411 15.3675 6.73032 15.9674C7.85657 16.9501 9.32996 17.5449 10.942 17.5437C12.6415 17.5424 14.2707 16.8653 15.4706 15.6618C16.6705 14.4583 17.3426 12.827 17.3387 11.1275C17.335 9.52244 16.741 8.05665 15.7625 6.93526ZM8.625 16.0406C9.98571 16.6826 11.5824 16.7419 13.0225 16.1412C15.0465 15.297 16.3617 13.3156 16.3538 11.1226C16.3501 10.3028 16.1646 9.52606 15.8356 8.83065C15.5255 12.6693 12.4638 15.7308 8.625 16.0406ZM43.1754 9.54665V12.6194H41.5326L41.5445 4.11025H43.1754V9.31028L45.3381 6.23754H47.3236L45.019 9.42847L47.4772 12.6194H45.3854L43.1754 9.54665ZM37.7951 12.5101C37.4347 12.7011 36.9787 12.7967 36.4272 12.7967C35.9702 12.7967 35.5831 12.709 35.266 12.5337C34.9489 12.3584 34.7086 12.124 34.5451 11.8305C34.3816 11.537 34.2999 11.213 34.2999 10.8585C34.2999 10.563 34.3452 10.2932 34.4358 10.0489C34.5264 9.80468 34.6731 9.589 34.876 9.40188C35.0789 9.21475 35.3517 9.05816 35.6944 8.9321C35.9308 8.84543 36.2125 8.76861 36.5394 8.70164C36.8664 8.63467 37.2367 8.57066 37.6503 8.5096L37.9035 8.47213L38.1666 8.43302L38.423 8.39486L38.4118 8.31158C38.3737 8.08905 38.2913 7.91573 38.1644 7.79164C37.9832 7.61437 37.6799 7.52573 37.2544 7.52573C37.0181 7.52573 36.7719 7.58285 36.5158 7.69709C36.2597 7.81134 36.0805 8.01422 35.9781 8.30573L34.5244 7.84482C34.6859 7.31694 34.9893 6.88754 35.4344 6.55663C35.8796 6.22572 36.4862 6.06027 37.2544 6.06027C37.8178 6.06027 38.3181 6.14693 38.7554 6.32027C39.1926 6.4936 39.5235 6.793 39.7481 7.21845C39.8741 7.45482 39.949 7.69118 39.9726 7.92755C39.9963 8.16391 40.0081 8.42786 40.0081 8.71937V12.6194H38.6017V11.8355L38.5915 11.848C38.3409 12.1408 38.0755 12.3615 37.7951 12.5101ZM25.4362 8.75483V12.6194H23.8171V6.23754H25.2353V6.93728L25.3085 6.85143C25.4796 6.66146 25.6827 6.50214 25.9178 6.37345C26.2704 6.18042 26.6653 6.0839 27.1026 6.0839C27.6029 6.0839 28.0135 6.19027 28.3346 6.40299L28.4385 6.47653C28.6402 6.62885 28.8046 6.81269 28.9318 7.02805L28.9585 7.07775C29.1601 6.77623 29.4229 6.5385 29.7469 6.36458C30.0955 6.17746 30.4826 6.0839 30.908 6.0839C31.6368 6.0839 32.1874 6.29958 32.5596 6.73095C32.9319 7.16232 33.118 7.72664 33.118 8.42392V12.6194H31.5108V8.84937C31.5108 8.42785 31.4113 8.0999 31.2124 7.8655C31.0134 7.63111 30.7386 7.51391 30.388 7.51391C30.1635 7.51391 29.9685 7.56611 29.803 7.6705C29.6376 7.7749 29.5086 7.92066 29.416 8.10778C29.3234 8.2949 29.2771 8.51058 29.2771 8.75483V12.6194H27.6698V8.84937C27.6698 8.42785 27.5704 8.0999 27.3714 7.8655C27.1725 7.63111 26.8977 7.51391 26.5471 7.51391C26.2122 7.51391 25.9434 7.62914 25.7405 7.85959C25.5376 8.09005 25.4362 8.38846 25.4362 8.75483ZM36.7699 11.5321C36.5847 11.5321 36.4252 11.5045 36.2912 11.4494C36.1573 11.3942 36.0539 11.3145 35.981 11.2101C35.9081 11.1057 35.8717 10.9806 35.8717 10.8348C35.8717 10.7285 35.8943 10.632 35.9397 10.5453C35.985 10.4586 36.0559 10.3789 36.1524 10.306C36.2489 10.2331 36.3759 10.1651 36.5335 10.1021C36.6714 10.0509 36.8309 10.0036 37.0122 9.96029C37.1934 9.91695 37.4317 9.8687 37.7272 9.81551C37.9118 9.78228 38.1319 9.74404 38.3873 9.70079L38.4092 9.69733L38.4093 9.70218C38.4071 9.77592 38.4038 9.85581 38.3994 9.94185L38.3919 10.0755C38.3782 10.306 38.3299 10.5079 38.2472 10.6812C38.2038 10.7718 38.1221 10.8841 38.0019 11.018C37.8818 11.152 37.7203 11.2711 37.5174 11.3755C37.3145 11.4799 37.0653 11.5321 36.7699 11.5321ZM53.9241 9.87756C53.9911 9.10543 53.9123 8.43376 53.6877 7.86255C53.4632 7.29133 53.1165 6.84815 52.6477 6.533C52.1789 6.21784 51.6097 6.06027 50.94 6.06027C50.3097 6.06027 49.7522 6.20307 49.2677 6.48868C48.7831 6.77428 48.403 7.17512 48.1272 7.69118C47.8515 8.20725 47.7136 8.81392 47.7136 9.5112C47.7136 10.1494 47.8544 10.7157 48.1361 11.2101C48.4178 11.7045 48.8078 12.0925 49.3061 12.3742C49.8044 12.6558 50.3806 12.7967 51.0345 12.7967C51.6491 12.7967 52.2154 12.6352 52.7334 12.3121C53.2514 11.9891 53.6306 11.5361 53.8709 10.953L52.2636 10.4921C52.1454 10.7521 51.9741 10.9511 51.7495 11.0889C51.525 11.2268 51.2551 11.2958 50.94 11.2958C50.4397 11.2958 50.0605 11.1332 49.8025 10.8082C49.6238 10.5832 49.507 10.2936 49.4521 9.93924L49.4435 9.87756H53.15H53.9241ZM49.4863 8.68392H52.2976L52.2886 8.6175C52.2397 8.30375 52.1516 8.05899 52.0243 7.88323C51.8175 7.59762 51.4797 7.45482 51.0109 7.45482C50.4633 7.45482 50.0605 7.62126 49.8025 7.95414L49.7452 8.03377C49.6353 8.19867 49.5528 8.39734 49.4979 8.62979L49.4863 8.68392ZM56.8727 12.6194V9.35756C56.8727 9.11331 56.9062 8.89369 56.9732 8.69869C57.0402 8.50369 57.1386 8.33429 57.2686 8.19051C57.3986 8.04672 57.5582 7.93149 57.7473 7.84482C57.9364 7.75421 58.1481 7.70005 58.3825 7.68232C58.6169 7.66459 58.8227 7.6833 59 7.73846V6.23754C58.807 6.2139 58.614 6.20898 58.4209 6.22277C58.2279 6.23655 58.0408 6.27004 57.8596 6.32322C57.6783 6.3764 57.5109 6.45027 57.3573 6.54481C57.1564 6.663 56.987 6.81269 56.8491 6.99391C56.7939 7.06639 56.7432 7.14203 56.6969 7.22082L56.6718 7.26573V6.23754H55.2536V12.6194H56.8727Z" fill="#ADADAD"/>
</svg>
