<svg width="65" height="16" viewBox="0 0 65 16" fill="none" xmlns="http://www.w3.org/2000/svg">
<path fill-rule="evenodd" clip-rule="evenodd" d="M14.8283 4.33561C14.8283 6.31865 13.2207 7.92623 11.2377 7.92623C9.25462 7.92623 7.64705 6.31865 7.64705 4.33561C7.64705 2.35257 9.25462 0.744995 11.2377 0.744995C13.2207 0.744995 14.8283 2.35257 14.8283 4.33561ZM7.64705 11.5168C7.64705 13.4999 6.03948 15.1075 4.05644 15.1075C2.07339 15.1075 0.46582 13.4999 0.46582 11.5168C0.46582 9.5338 2.07339 7.92623 4.05644 7.92623C6.03948 7.92623 7.64705 9.5338 7.64705 11.5168ZM59.0799 14.0317C59.3285 14.0317 59.6366 14.0068 60.0042 13.9569C60.3717 13.9071 60.6744 13.8434 60.9123 13.7659V11.5891C60.696 11.6556 60.4961 11.7026 60.3123 11.7303C60.1285 11.758 59.9339 11.7719 59.7285 11.7719C59.3069 11.7719 59.0123 11.6916 58.8448 11.5309C58.6772 11.3703 58.5934 11.0961 58.5934 10.7084V7.36849H60.9933V5.12526H58.5934V2.28383L55.9665 2.86541V5.12526H54.2314V7.36849H55.9665V11.2401C55.9665 12.1596 56.2287 12.8547 56.753 13.3255C57.2773 13.7963 58.0529 14.0317 59.0799 14.0317ZM23.0976 13.9154V7.90022C23.2598 7.68974 23.457 7.53188 23.6895 7.42665C23.9219 7.32141 24.184 7.26879 24.4759 7.26879C24.8975 7.26879 25.2353 7.41557 25.4894 7.70913C25.7434 8.00269 25.8705 8.38764 25.8705 8.86398V13.9154H28.4974V8.49841C28.4974 8.39871 28.4947 8.30178 28.4893 8.20762C28.4839 8.11346 28.4758 8.02207 28.4649 7.93345C28.6379 7.72297 28.8433 7.55958 29.0811 7.44326C29.319 7.32695 29.5838 7.26879 29.8757 7.26879C30.2973 7.26879 30.6351 7.41557 30.8892 7.70913C31.1432 8.00269 31.2702 8.38764 31.2702 8.86398V13.9154H33.8972V8.49841C33.8972 7.46819 33.5864 6.62074 32.9648 5.95608C32.3432 5.29142 31.5459 4.95909 30.573 4.95909C30.0108 4.95909 29.4919 5.06433 29.0163 5.27481C28.5406 5.48528 28.1298 5.78438 27.7839 6.1721C27.492 5.79546 27.1272 5.49913 26.6893 5.28311C26.2515 5.0671 25.7678 4.95909 25.238 4.95909C24.8381 4.95909 24.457 5.02002 24.0949 5.14187C23.7327 5.26373 23.4003 5.44651 23.0976 5.69022V5.12526H20.4707V13.9154H23.0976ZM39.7347 14.0816C40.4482 14.0816 41.0887 13.9763 41.6563 13.7659C42.2238 13.5554 42.7779 13.2175 43.3184 12.7522L41.5833 11.1737C41.3779 11.3841 41.1293 11.5475 40.8374 11.6639C40.5455 11.7802 40.2212 11.8383 39.8645 11.8383C39.3672 11.8383 38.9348 11.7082 38.5672 11.4478C38.1997 11.1875 37.9294 10.8524 37.7565 10.4425H43.8697V9.77789C43.8697 9.09107 43.7616 8.45133 43.5454 7.85868C43.3292 7.26602 43.0292 6.75922 42.6454 6.33826C42.2617 5.91731 41.8049 5.58498 41.2752 5.34127C40.7455 5.09756 40.1672 4.97571 39.5402 4.97571C38.9132 4.97571 38.3267 5.09202 37.7808 5.32465C37.2349 5.55729 36.7619 5.87854 36.3619 6.28841C35.9619 6.69829 35.6457 7.18294 35.4133 7.74236C35.1809 8.30178 35.0647 8.89721 35.0647 9.52864C35.0647 10.1601 35.1863 10.7555 35.4295 11.3149C35.6728 11.8743 36.0025 12.359 36.4187 12.7689C36.8349 13.1787 37.3294 13.5 37.9024 13.7326C38.4753 13.9653 39.0861 14.0816 39.7347 14.0816ZM37.7078 8.56488H41.2914C41.1509 8.14393 40.9212 7.80606 40.6023 7.55127C40.2834 7.29648 39.9131 7.16909 39.4915 7.16909C39.0591 7.16909 38.6861 7.29094 38.3726 7.53465C38.0591 7.77836 37.8375 8.12177 37.7078 8.56488ZM49.383 14.0816C50.0965 14.0816 50.737 13.9763 51.3045 13.7659C51.8721 13.5554 52.4261 13.2175 52.9666 12.7522L51.2316 11.1737C51.0262 11.3841 50.7775 11.5475 50.4857 11.6639C50.1938 11.7802 49.8695 11.8383 49.5127 11.8383C49.0154 11.8383 48.583 11.7082 48.2155 11.4478C47.8479 11.1875 47.5777 10.8524 47.4047 10.4425H53.518V9.77789C53.518 9.09107 53.4099 8.45133 53.1937 7.85868C52.9774 7.26602 52.6775 6.75922 52.2937 6.33826C51.9099 5.91731 51.4532 5.58498 50.9235 5.34127C50.3938 5.09756 49.8154 4.97571 49.1884 4.97571C48.5614 4.97571 47.9749 5.09202 47.429 5.32465C46.8831 5.55729 46.4101 5.87854 46.0102 6.28841C45.6102 6.69829 45.294 7.18294 45.0616 7.74236C44.8291 8.30178 44.7129 8.89721 44.7129 9.52864C44.7129 10.1601 44.8345 10.7555 45.0778 11.3149C45.321 11.8743 45.6507 12.359 46.0669 12.7689C46.4831 13.1787 46.9777 13.5 47.5506 13.7326C48.1236 13.9653 48.7344 14.0816 49.383 14.0816ZM47.3561 8.56488H50.9397C50.7992 8.14393 50.5694 7.80606 50.2505 7.55127C49.9316 7.29648 49.5614 7.16909 49.1398 7.16909C48.7074 7.16909 48.3344 7.29094 48.0209 7.53465C47.7074 7.77836 47.4858 8.12177 47.3561 8.56488ZM63.4186 4.5342C63.7508 4.5342 64.0313 4.42283 64.2601 4.20008C64.489 3.97733 64.6034 3.69655 64.6034 3.35772C64.6034 3.02517 64.489 2.74595 64.2601 2.52007C64.0313 2.29418 63.7508 2.18124 63.4186 2.18124C63.0863 2.18124 62.8042 2.29418 62.5723 2.52007C62.3404 2.74595 62.2244 3.02517 62.2244 3.35772C62.2244 3.69655 62.3404 3.97733 62.5723 4.20008C62.8042 4.42283 63.0863 4.5342 63.4186 4.5342Z" fill="#ADADAD"/>
</svg>
