<svg width="16" height="16" viewBox="0 0 16 16" fill="none" xmlns="http://www.w3.org/2000/svg">
<path id="Combined Shape" fill-rule="evenodd" clip-rule="evenodd" d="M8 0C3.58172 0 0 3.58172 0 8C0 12.4183 3.58172 16 8 16C12.4183 16 16 12.4183 16 8C16 3.58172 12.4183 0 8 0ZM8 13.8667C4.75993 13.8667 2.13333 11.2401 2.13333 8C2.13333 4.75993 4.75993 2.13333 8 2.13333C11.2401 2.13333 13.8667 4.75993 13.8667 8C13.8667 9.55594 13.2486 11.0481 12.1484 12.1484C11.0481 13.2486 9.55594 13.8667 8 13.8667ZM8 3.2C5.34903 3.2 3.2 5.34903 3.2 8C3.2 10.651 5.34903 12.8 8 12.8C10.651 12.8 12.8 10.651 12.8 8C12.8 5.34903 10.651 3.2 8 3.2ZM10.6667 9.06667H7.46667C7.17211 9.06667 6.93333 8.82789 6.93333 8.53333V6.4C6.93333 6.10545 7.17211 5.86667 7.46667 5.86667C7.76122 5.86667 8 6.10545 8 6.4V8H10.6667C10.9612 8 11.2 8.23878 11.2 8.53333C11.2 8.82789 10.9612 9.06667 10.6667 9.06667Z" fill="#8E4CB6"/>
</svg>
