<svg width="84" height="27" viewBox="0 0 84 27" fill="none" xmlns="http://www.w3.org/2000/svg">
<path d="M8.8525 19.42C7.74417 19.42 6.67667 19.2917 5.65 19.035C4.62333 18.7783 3.70167 18.3992 2.885 17.8975C2.08 17.3958 1.43833 16.7717 0.96 16.025C0.493333 15.2667 0.26 14.3858 0.26 13.3825C0.26 13.3358 0.26 13.2833 0.26 13.225C0.26 13.155 0.26 13.1025 0.26 13.0675H5.65C5.65 13.1025 5.65 13.1433 5.65 13.19C5.65 13.225 5.65 13.2658 5.65 13.3125C5.65 13.9892 5.9475 14.485 6.5425 14.8C7.14917 15.115 7.96583 15.2725 8.9925 15.2725C9.52917 15.2725 10.0425 15.22 10.5325 15.115C11.0342 14.9983 11.4425 14.8175 11.7575 14.5725C12.0842 14.3158 12.2475 13.995 12.2475 13.61C12.2475 12.9917 11.9033 12.5542 11.215 12.2975C10.5383 12.0408 9.4475 11.7842 7.9425 11.5275C7.09083 11.3875 6.2275 11.1892 5.3525 10.9325C4.4775 10.6758 3.6725 10.3375 2.9375 9.9175C2.2025 9.48583 1.61333 8.94333 1.17 8.29C0.726667 7.625 0.505 6.82 0.505 5.875C0.505 4.615 0.884167 3.55333 1.6425 2.69C2.4125 1.82667 3.43333 1.17333 4.705 0.729999C5.97667 0.286666 7.37667 0.0649997 8.905 0.0649997C10.3633 0.0649997 11.7225 0.309999 12.9825 0.799999C14.2425 1.27833 15.2633 1.9725 16.045 2.8825C16.8267 3.78083 17.2175 4.86583 17.2175 6.1375C17.2175 6.16083 17.2175 6.19583 17.2175 6.2425C17.2175 6.28917 17.2175 6.33583 17.2175 6.3825H11.88C11.88 6.33583 11.88 6.295 11.88 6.26C11.88 6.225 11.88 6.19583 11.88 6.1725C11.88 5.70583 11.7283 5.32667 11.425 5.035C11.1333 4.74333 10.76 4.5275 10.305 4.3875C9.85 4.23583 9.3775 4.16 8.8875 4.16C8.44417 4.16 7.98333 4.2125 7.505 4.3175C7.03833 4.41083 6.64167 4.57417 6.315 4.8075C5.98833 5.02917 5.825 5.34417 5.825 5.7525C5.825 6.14917 6 6.47583 6.35 6.7325C6.7 6.9775 7.19 7.18167 7.82 7.345C8.45 7.49667 9.17917 7.6425 10.0075 7.7825C10.7892 7.91083 11.6117 8.09167 12.475 8.325C13.35 8.54667 14.1667 8.8675 14.925 9.2875C15.695 9.69583 16.3133 10.2383 16.78 10.915C17.2583 11.58 17.4975 12.4258 17.4975 13.4525C17.4975 14.5142 17.2525 15.4242 16.7625 16.1825C16.2725 16.9408 15.6075 17.5592 14.7675 18.0375C13.9392 18.5042 13.0117 18.8483 11.985 19.07C10.97 19.3033 9.92583 19.42 8.8525 19.42ZM33.4772 19V11.1075C33.4772 10.6642 33.4772 10.2617 33.4772 9.9C33.4772 9.53833 33.4772 9.21167 33.4772 8.92C33.4772 8.15 33.3781 7.45 33.1797 6.82C32.9814 6.17833 32.6256 5.665 32.1122 5.28C31.5989 4.895 30.8581 4.7025 29.8897 4.7025C29.0497 4.7025 28.3206 4.895 27.7022 5.28C27.0956 5.665 26.6289 6.20167 26.3022 6.89C25.9756 7.57833 25.8122 8.37167 25.8122 9.27L24.3072 8.185C24.3072 6.575 24.6572 5.16333 25.3572 3.95C26.0572 2.73667 27.0022 1.78583 28.1922 1.0975C29.3939 0.409166 30.7239 0.0649997 32.1822 0.0649997C33.7106 0.0649997 34.9647 0.374166 35.9447 0.992499C36.9364 1.59917 37.6714 2.45083 38.1497 3.5475C38.6397 4.6325 38.8848 5.90417 38.8848 7.3625C38.8848 7.9575 38.8848 8.6225 38.8848 9.3575C38.8848 10.0925 38.8848 10.845 38.8848 11.615V19H33.4772ZM20.3872 19V0.414999H25.8122V19H20.3872ZM48.7597 19.385C47.4064 19.385 46.1989 19.1692 45.1372 18.7375C44.0872 18.3058 43.2647 17.6817 42.6697 16.865C42.0747 16.0483 41.7772 15.0567 41.7772 13.89C41.7772 12.5717 42.1389 11.4983 42.8622 10.67C43.5856 9.84167 44.5422 9.21167 45.7322 8.78C46.9339 8.33667 48.2347 8.045 49.6347 7.905C51.6764 7.70667 53.0822 7.52583 53.8522 7.3625C54.6339 7.19917 55.0247 6.91333 55.0247 6.505C55.0247 6.49333 55.0247 6.48167 55.0247 6.47C55.0247 5.78167 54.6922 5.23917 54.0272 4.8425C53.3739 4.44583 52.4581 4.2475 51.2797 4.2475C50.0314 4.2475 49.0747 4.475 48.4097 4.93C47.7564 5.37333 47.4297 6.05583 47.4297 6.9775H42.0922C42.0922 5.48417 42.4947 4.22417 43.2997 3.1975C44.1164 2.17083 45.2189 1.395 46.6072 0.87C47.9956 0.333333 49.5647 0.0649997 51.3147 0.0649997C52.9481 0.0649997 54.4589 0.315833 55.8472 0.817499C57.2356 1.3075 58.3497 2.04833 59.1897 3.04C60.0414 4.03167 60.4672 5.29167 60.4672 6.82C60.4672 7.065 60.4672 7.31 60.4672 7.555C60.4672 7.78833 60.4672 8.0275 60.4672 8.2725V14.8525C60.4672 15.3308 60.4789 15.7917 60.5022 16.235C60.5372 16.6667 60.6072 17.0633 60.7122 17.425C60.8289 17.8333 60.9747 18.1717 61.1497 18.44C61.3247 18.7083 61.4706 18.895 61.5872 19H56.2497C56.1681 18.9183 56.0397 18.7492 55.8647 18.4925C55.7014 18.2358 55.5614 17.9383 55.4447 17.6C55.3047 17.1917 55.1997 16.7833 55.1297 16.375C55.0714 15.955 55.0422 15.465 55.0422 14.905L56.1622 15.675C55.8356 16.445 55.3047 17.11 54.5697 17.67C53.8464 18.2183 52.9831 18.6442 51.9797 18.9475C50.9881 19.2392 49.9147 19.385 48.7597 19.385ZM50.2122 15.325C51.0639 15.325 51.8572 15.1733 52.5922 14.87C53.3389 14.555 53.9456 14.065 54.4122 13.4C54.8789 12.735 55.1122 11.8658 55.1122 10.7925V8.92L56.4597 10.2325C55.6897 10.5125 54.7972 10.7458 53.7822 10.9325C52.7789 11.1075 51.7756 11.2475 50.7722 11.3525C49.5822 11.4692 48.6897 11.6733 48.0947 11.965C47.5114 12.245 47.2197 12.7233 47.2197 13.4C47.2197 14.0417 47.4706 14.5258 47.9722 14.8525C48.4739 15.1675 49.2206 15.325 50.2122 15.325ZM63.9512 26.6475V0.414999H69.3937V26.6475H63.9512ZM75.1337 19.42C73.6637 19.42 72.3162 19.0292 71.0912 18.2475C69.8662 17.4542 68.8862 16.3925 68.1512 15.0625C67.4162 13.7208 67.0487 12.2158 67.0487 10.5475C67.0487 10.5008 67.0487 10.46 67.0487 10.425C67.0487 10.3783 67.0487 10.3258 67.0487 10.2675L69.3937 10.215C69.3937 10.25 69.3937 10.285 69.3937 10.32C69.3937 10.355 69.3937 10.39 69.3937 10.425C69.3937 11.2883 69.6037 12.0467 70.0237 12.7C70.4437 13.3417 70.9862 13.8375 71.6512 14.1875C72.3162 14.5375 73.0103 14.7125 73.7337 14.7125C74.9237 14.7125 75.9562 14.3042 76.8312 13.4875C77.7178 12.6592 78.1612 11.37 78.1612 9.62C78.1612 7.87 77.7237 6.59833 76.8487 5.805C75.9737 5 74.9353 4.5975 73.7337 4.5975C73.0103 4.5975 72.3162 4.7725 71.6512 5.1225C70.9862 5.46083 70.4437 5.945 70.0237 6.575C69.6037 7.205 69.3937 7.9575 69.3937 8.8325L67.0487 8.6925C67.0487 7.0125 67.4162 5.53083 68.1512 4.2475C68.8862 2.9525 69.8662 1.93167 71.0912 1.185C72.3162 0.438333 73.6637 0.0649997 75.1337 0.0649997C76.6387 0.0649997 78.0445 0.438333 79.3512 1.185C80.6578 1.92 81.7137 2.99917 82.5187 4.4225C83.3353 5.84583 83.7437 7.57833 83.7437 9.62C83.7437 11.755 83.347 13.5517 82.5537 15.01C81.7603 16.4683 80.7103 17.5708 79.4037 18.3175C78.097 19.0525 76.6737 19.42 75.1337 19.42Z" fill="#151515"/>
</svg>
