<svg width="14" height="16" viewBox="0 0 14 16" fill="none" xmlns="http://www.w3.org/2000/svg">
<g id="List">
<path id="Shape" fill-rule="evenodd" clip-rule="evenodd" d="M14 3C14 2.44772 13.5523 2 13 2H12V1C12 0.447715 11.5523 0 11 0C10.4477 0 10 0.447715 10 1V2H8V1C8 0.447715 7.55228 0 7 0C6.44772 0 6 0.447715 6 1V2H4V1C4 0.447715 3.55228 0 3 0C2.44772 0 2 0.447715 2 1V2H1C0.447715 2 0 2.44772 0 3V15C0 15.5523 0.447715 16 1 16H13C13.5523 16 14 15.5523 14 15V3ZM2 7V6H12V7H2ZM2 9V10H12V9H2ZM2 13V12H12V13H2Z" fill="#726CEE"/>
</g>
</svg>
